<svg id="visual" viewBox="0 0 1920 540" width="1920" height="540" xmlns="http://www.w3.org/2000/svg" xmlns:xlink="http://www.w3.org/1999/xlink" version="1.1"><rect x="0" y="0" width="1920" height="540" fill="#001220"></rect><defs><linearGradient id="grad1_0" x1="71.9%" y1="0%" x2="100%" y2="100%"><stop offset="-21.111111111111104%" stop-color="#001220" stop-opacity="1"></stop><stop offset="121.1111111111111%" stop-color="#001220" stop-opacity="1"></stop></linearGradient></defs><defs><linearGradient id="grad2_0" x1="0%" y1="0%" x2="28.1%" y2="100%"><stop offset="-21.111111111111104%" stop-color="#001220" stop-opacity="1"></stop><stop offset="121.1111111111111%" stop-color="#001220" stop-opacity="1"></stop></linearGradient></defs><g transform="translate(1920, 0)"><path d="M0 540C-72.7 535.1 -145.4 530.1 -206.6 498.9C-267.9 467.7 -317.5 410.1 -353.6 353.6C-389.6 297 -411.9 241.3 -440.7 182.5C-469.5 123.8 -504.7 61.9 -540 0L0 0Z" fill="#3ef45c"></path></g><g transform="translate(0, 540)"><path d="M0 -540C70.7 -532.3 141.4 -524.6 206.6 -498.9C271.9 -473.1 331.9 -429.3 376.2 -376.2C420.5 -323 449.2 -260.6 474 -196.3C498.7 -132.1 519.3 -66 540 0L0 0Z" fill="#3ef45c"></path></g></svg>